IKResults
version=1
nRows=12
nColumns=34
inDegrees=yes

Units are S.I. units (second, meters, Newtons, ...)
If the header above contains a line with 'inDegrees', this indicates whether rotational values are in degrees (yes) or radians (no).

endheader
time	pelvis_tilt	pelvis_list	pelvis_rotation	pelvis_tx	pelvis_ty	pelvis_tz	hip_flexion_r	hip_adduction_r	hip_rotation_r	knee_angle_r	knee_angle_beta_r	ankle_angle_r	subtalar_angle_r	mtp_angle_r	hip_flexion_l	hip_adduction_l	hip_rotation_l	knee_angle_l	knee_angle_beta_l	ankle_angle_l	subtalar_angle_l	mtp_angle_l	lumbar_extension	lumbar_bending	lumbar_rotation	arm_flex_r	arm_add_r	arm_rot_r	elbow_flex_r	arm_flex_l	arm_add_l	arm_rot_l	elbow_flex_l
     10.80500000	     -0.43005481	    -56.86892346	     87.14156715	      1.19719146	      0.64543928	     -0.68691932	     18.89677477	     -6.88120867	     -1.23354698	     57.64845059	      1.00615527	    -16.56629261	    -17.39312719	      0.00000000	     13.98772298	     -9.20842325	     -8.98772799	     50.68259610	      0.88457818	    -17.66080113	     -1.16986914	      0.00000000	     23.47809284	      0.97408682	     -1.18930847	    -25.28254036	    -49.53923820	    -89.85341216	    121.20614591	    -18.65658708	    -57.91028078	    -89.80422694	    124.99798813
     10.81000000	     -0.38578418	    -56.83646771	     87.15376058	      1.19725438	      0.64555161	     -0.68684040	     18.88224445	     -6.83097314	     -1.12330822	     57.70600870	      1.00715985	    -16.09269519	    -16.79243390	      0.00000000	     13.95817950	     -9.27924231	     -9.07739042	     50.73700307	      0.88552776	    -17.41025675	     -0.98111492	      0.00000000	     23.34656235	      0.99026038	     -1.14529963	    -25.17911777	    -49.46727095	    -89.85390992	    121.31776978	    -18.42866602	    -57.90128271	    -89.80145879	    125.13025521
     10.81500000	     -0.37922841	    -56.88301489	     87.27668415	      1.19697607	      0.64524046	     -0.68716285	     18.84187311	     -6.90162573	     -1.32204589	     57.58365746	      1.00502442	    -16.33995380	    -16.82880965	      0.00000000	     13.98401675	     -9.22639140	     -8.98253014	     50.66016390	      0.88418666	    -17.62072659	     -1.02184674	      0.00000000	     23.44659140	      0.96556575	     -1.24635686	    -25.31407552	    -49.48878752	    -89.85361626	    121.32701127	    -18.72626675	    -57.91494174	    -89.80560302	    124.99890835
     10.82000000	     -0.36017316	    -56.89438178	     87.27935750	      1.19696049	      0.64511742	     -0.68723578	     18.83549494	     -6.89018220	     -1.24795577	     57.59390209	      1.00520322	    -15.90108937	    -16.30678537	      0.00000000	     13.97131594	     -9.23522821	     -9.00149775	     50.66809311	      0.88432505	    -17.39932346	     -0.89262080	      0.00000000	     23.43174605	      0.97253715	     -1.21496715	    -25.39097253	    -49.48362685	    -89.85474967	    121.35579044	    -18.69808429	    -57.94084618	    -89.80528359	    125.01742018
     10.82500000	     -0.34789932	    -56.90681931	     87.30886541	      1.19690711	      0.64508304	     -0.68726769	     18.84137654	     -6.89775945	     -1.22513105	     57.61932996	      1.00564702	    -15.41048109	    -15.63173011	      0.00000000	     13.99446959	     -9.22442749	     -8.95129437	     50.70249331	      0.88492545	    -17.17990418	     -0.72654223	      0.00000000	     23.39346385	      0.96903987	     -1.19817355	    -25.44647271	    -49.43131876	    -89.85542244	    121.39628701	    -18.64453208	    -57.92072080	    -89.80393929	    125.14049916
     10.83000000	     -0.34564520	    -56.91764326	     87.31001442	      1.19695036	      0.64497978	     -0.68748459	     18.81760136	     -6.88032728	     -1.25978992	     57.53323996	      1.00414447	    -16.46563584	    -17.20097231	      0.00000000	     13.95889465	     -9.20788466	     -9.00686671	     50.57673175	      0.88273049	    -17.74020470	     -1.23668162	      0.00000000	     23.39896137	      0.96304684	     -1.17766954	    -25.43793368	    -49.42361249	    -89.85520346	    121.30287385	    -18.78093660	    -57.94294154	    -89.80619754	    124.99583072
     10.83500000	     -0.32079763	    -56.93114129	     87.37155832	      1.19682691	      0.64487338	     -0.68756820	     18.80375677	     -6.89085923	     -1.31484736	     57.49119593	      1.00341066	    -16.39038136	    -16.87950830	      0.00000000	     13.98377768	     -9.15855895	     -8.84970048	     50.59259473	      0.88300736	    -17.68841253	     -1.22698956	      0.00000000	     23.38122696	      0.95461615	     -1.19711421	    -25.48303964	    -49.37852490	    -89.85568556	    121.40544198	    -18.80064728	    -57.94972537	    -89.80712015	    125.01390791
     10.84000000	     -0.31510338	    -56.94935535	     87.37876434	      1.19682629	      0.64471721	     -0.68774142	     18.79040829	     -6.89395891	     -1.29177009	     57.48919573	      1.00337575	    -16.00262381	    -16.40550470	      0.00000000	     13.95659434	     -9.20903402	     -8.92311515	     50.55392334	      0.88233241	    -17.50658826	     -0.99076808	      0.00000000	     23.39620688	      0.95691549	     -1.16505135	    -25.60537610	    -49.35811931	    -89.85616550	    121.37162310	    -18.84192419	    -57.95031490	    -89.80623510	    124.98460675
     10.84500000	     -0.28812264	    -56.94821246	     87.38372126	      1.19680686	      0.64479580	     -0.68768535	     18.81201628	     -6.86420865	     -1.22550536	     57.54589330	      1.00436531	    -15.49275638	    -15.74119853	      0.00000000	     13.97901629	     -9.22672324	     -8.91432799	     50.63921546	      0.88382104	    -17.23402073	     -0.82197803	      0.00000000	     23.32759590	      0.97000810	     -1.12527144	    -25.56670002	    -49.29164474	    -89.85711286	    121.55328069	    -18.60757808	    -57.89858937	    -89.80386026	    125.18190893
     10.85000000	     -0.30062467	    -56.97124396	     87.42684878	      1.19671882	      0.64458295	     -0.68792158	     18.76553943	     -6.89689890	     -1.30519049	     57.42257315	      1.00221297	    -16.54980372	    -17.27056334	      0.00000000	     13.97743438	     -9.16561404	     -8.85173746	     50.53761011	      0.88204769	    -17.70681832	     -1.23709565	      0.00000000	     23.36025500	      0.92046243	     -1.13666300	    -25.65701498	    -49.28608154	    -89.85680557	    121.37085529	    -18.88597237	    -57.98195800	    -89.80812242	    125.05361608
     10.85500000	     -0.29978937	    -56.98297731	     87.41283413	      1.19668803	      0.64442826	     -0.68806856	     18.75278600	     -6.90696316	     -1.26499435	     57.41956711	      1.00216050	    -16.03600620	    -16.58468152	      0.00000000	     13.95248070	     -9.16005846	     -8.90441476	     50.48983702	      0.88121389	    -17.50688985	     -0.79542298	      0.00000000	     23.36649205	      0.93557705	     -1.10349013	    -25.73501221	    -49.31452961	    -89.85759126	    121.35922105	    -18.96608884	    -57.96511156	    -89.80822067	    125.04945569
     10.86000000	     -0.29827514	    -56.99557840	     87.43607068	      1.19669767	      0.64437779	     -0.68817999	     18.74833923	     -6.90217634	     -1.31175598	     57.37776652	      1.00143094	    -16.55602446	    -17.27321571	      0.00000000	     13.96325579	     -9.16088345	     -8.87551991	     50.47278623	      0.88091630	    -17.64999005	     -0.78924364	      0.00000000	     23.34945573	      0.91604066	     -1.08322593	    -25.75511122	    -49.23898049	    -89.85769588	    121.40550524	    -18.97706333	    -57.96541957	    -89.80888088	    125.07355193
